<svg xmlns="http://www.w3.org/2000/svg" viewBox="0 0 184.11 271.56"><title>logo__dist</title><path d="M252.1,276.75V263.5H207.4v13.25h15v47H237v-47h15.1m-95.4,2.7a19.49,19.49,0,0,0,3,11.25q3.1,4.5,10.55,6.75l9.4,2.9a9.75,9.75,0,0,1,4.7,2.65,6.62,6.62,0,0,1,1.3,4.45,3.94,3.94,0,0,1-1.65,3.3,8.22,8.22,0,0,1-4.8,1.3h-0.25a7.47,7.47,0,0,1-4.95-2.1,9.53,9.53,0,0,1-2.85-5.25h-15.9a26,26,0,0,0,3.7,11.85,17.38,17.38,0,0,0,7.9,6.8,28.52,28.52,0,0,0,11.45,2.15q11.8,0,17.65-4.8t5.9-13.55a19.94,19.94,0,0,0-3.7-12.3q-3.8-5.05-12.55-7.7l-8.55-2.35a7.24,7.24,0,0,1-3.75-2.3,5.54,5.54,0,0,1-1.1-3.45,4,4,0,0,1,1.45-3.2,6.43,6.43,0,0,1,4.4-1.4,8.15,8.15,0,0,1,5.25,1.6,7.48,7.48,0,0,1,2.6,4.9h15q-1.2-9.6-6.65-14.4t-15.75-4.75a28.67,28.67,0,0,0-11.6,2.25,18,18,0,0,0-7.5,6.25,16.56,16.56,0,0,0-2.65,9.15m-11.2-16H130.7v60.3h14.8V263.5m-38.3,3.75q-6.6-3.7-16.1-3.75H71.9v60.3H91.5a32.6,32.6,0,0,0,15.65-3.6,23.83,23.83,0,0,0,10-10.2,34.9,34.9,0,0,0,3.5-16,36.18,36.18,0,0,0-3.45-16.15,24.47,24.47,0,0,0-10-10.55m-5.7,13.7q3.8,4.4,3.85,13,0,7.8-4,12t-10.8,4.35H86.2v-33.8h4.05Q97.6,276.55,101.5,280.95Z" transform="translate(-67.99 -53.94)"/><path d="M244,141.93q0-36.44-25.78-62.22T156,53.94q-36.44,0-62.22,25.78T68,141.93q0,36.44,25.78,62.22T156,229.93q36.44,0,62.22-25.78T244,141.93Z" transform="translate(-67.99 -53.94)"/></svg>