<svg width="990" height="261" viewBox="0 0 990 261" fill="none" xmlns="http://www.w3.org/2000/svg">
<path d="M406.992 158.576C406.992 152.176 407.376 147.227 408.144 143.728C408.998 140.144 410.662 136.901 413.136 134C415.696 131.013 419.792 127.6 425.424 123.76C431.654 119.408 435.92 116.336 438.224 114.544C440.528 112.752 442.107 111.131 442.96 109.68C443.814 108.229 444.24 106.437 444.24 104.304C444.24 102.341 443.856 100.848 443.088 99.824C442.406 98.8 441.211 98.0747 439.504 97.648C437.883 97.2213 435.536 97.008 432.464 97.008C429.478 97.008 426.235 97.3067 422.736 97.904C419.323 98.5013 416.422 99.2267 414.032 100.08C413.862 100.165 413.606 100.208 413.264 100.208C412.582 100.208 412.198 99.8667 412.112 99.184L409.424 83.312V82.928C409.424 82.3307 409.766 81.8613 410.448 81.52C413.264 80.4107 416.976 79.472 421.584 78.704C426.278 77.8507 431.27 77.424 436.56 77.424C446.459 77.424 454.224 79.3013 459.856 83.056C465.574 86.8107 468.432 93.3813 468.432 102.768C468.432 107.888 467.622 112.155 466 115.568C464.379 118.896 461.947 121.883 458.704 124.528C455.547 127.088 450.939 130.16 444.88 133.744C441.296 135.877 438.608 137.627 436.816 138.992C435.11 140.272 433.915 141.381 433.232 142.32C432.635 143.173 432.336 144.112 432.336 145.136C432.336 145.648 432.422 145.989 432.592 146.16C432.848 146.245 433.275 146.288 433.872 146.288H467.536C467.963 146.288 468.262 146.416 468.432 146.672C468.688 146.843 468.816 147.141 468.816 147.568V164.72C468.816 165.061 468.688 165.36 468.432 165.616C468.262 165.872 467.963 166 467.536 166H408.272C407.931 166 407.632 165.872 407.376 165.616C407.12 165.36 406.992 165.061 406.992 164.72V158.576Z" fill="#3081F9"/>
<path d="M540.959 138.096C540.959 145.776 539.594 151.749 536.863 156.016C534.133 160.283 530.122 163.269 524.831 164.976C519.541 166.683 512.671 167.536 504.223 167.536C500.639 167.536 496.799 167.323 492.703 166.896C488.693 166.555 485.194 166.043 482.207 165.36C481.781 165.275 481.482 165.104 481.311 164.848C481.141 164.507 481.098 164.08 481.183 163.568L482.591 146.8C482.677 146.373 482.847 146.075 483.103 145.904C483.445 145.648 483.829 145.605 484.255 145.776C487.157 146.544 490.314 147.141 493.727 147.568C497.141 147.909 500.298 148.08 503.199 148.08C506.357 148.08 508.874 147.781 510.751 147.184C512.714 146.587 514.122 145.605 514.975 144.24C515.829 142.875 516.255 140.955 516.255 138.48C516.255 136.091 515.829 134.256 514.975 132.976C514.207 131.696 512.842 130.8 510.879 130.288C509.002 129.691 506.314 129.392 502.815 129.392C497.098 129.392 491.679 129.776 486.559 130.544C486.218 130.629 485.834 130.672 485.407 130.672C484.895 130.672 484.511 130.544 484.255 130.288C484.085 129.947 483.999 129.477 483.999 128.88L485.023 80.368C485.023 79.9413 485.109 79.6 485.279 79.344C485.535 79.088 485.877 78.96 486.303 78.96H537.375C537.802 78.96 538.101 79.088 538.271 79.344C538.527 79.5147 538.655 79.8133 538.655 80.24V98.16C538.655 98.5013 538.527 98.8 538.271 99.056C538.101 99.312 537.802 99.44 537.375 99.44H506.143C505.631 99.44 505.375 99.696 505.375 100.208L504.991 111.344C504.991 111.685 505.077 111.941 505.247 112.112C505.418 112.197 505.717 112.197 506.143 112.112C508.277 111.856 511.135 111.728 514.719 111.728C520.778 111.728 525.685 112.496 529.439 114.032C533.279 115.483 536.138 118.128 538.015 121.968C539.978 125.808 540.959 131.184 540.959 138.096Z" fill="#3081F9"/>
<path d="M606.732 98.928C605.026 98.672 603.234 98.4587 601.356 98.288C599.479 98.1173 597.73 98.032 596.108 98.032C590.391 98.032 585.954 99.2267 582.796 101.616C579.639 103.92 577.975 107.291 577.804 111.728C577.804 111.984 577.847 112.155 577.932 112.24C578.103 112.325 578.316 112.325 578.572 112.24C582.583 110.704 587.66 109.936 593.804 109.936C600.034 109.936 605.111 110.832 609.036 112.624C613.047 114.416 616.034 117.36 617.996 121.456C620.044 125.552 621.068 131.099 621.068 138.096C621.068 145.008 619.874 150.64 617.484 154.992C615.095 159.259 611.383 162.416 606.348 164.464C601.399 166.512 595.042 167.536 587.276 167.536C579.511 167.536 573.068 166.427 567.948 164.208C562.914 161.989 559.031 158.064 556.3 152.432C553.57 146.715 552.204 138.864 552.204 128.88C552.204 117.872 553.527 108.613 556.172 101.104C558.818 93.5093 563.255 87.664 569.484 83.568C575.799 79.3867 584.29 77.296 594.956 77.296C597.26 77.296 599.65 77.3813 602.124 77.552C604.599 77.7227 606.775 77.9787 608.652 78.32C609.164 78.4907 609.506 78.704 609.676 78.96C609.932 79.216 610.018 79.6 609.932 80.112L608.396 97.904C608.226 98.8427 607.671 99.184 606.732 98.928ZM597.644 137.584C597.644 133.829 596.834 131.227 595.212 129.776C593.676 128.325 591.116 127.6 587.532 127.6C583.436 127.6 580.492 128.368 578.7 129.904C576.908 131.355 576.012 133.744 576.012 137.072C576.012 141.168 576.908 144.112 578.7 145.904C580.578 147.611 583.564 148.464 587.66 148.464C591.159 148.464 593.676 147.653 595.212 146.032C596.834 144.325 597.644 141.509 597.644 137.584Z" fill="#3081F9"/>
<path d="M666.103 140.912C666.103 142.875 666.274 144.411 666.615 145.52C667.042 146.544 667.682 147.269 668.535 147.696C669.474 148.123 670.797 148.336 672.503 148.336H678.263C678.69 148.336 678.989 148.464 679.159 148.72C679.415 148.891 679.543 149.189 679.543 149.616V164.336C679.543 164.677 679.458 164.976 679.287 165.232C679.117 165.488 678.861 165.659 678.519 165.744C675.874 166.341 671.735 166.64 666.103 166.64C660.557 166.64 656.119 166 652.791 164.72C649.463 163.355 647.074 161.307 645.623 158.576C644.173 155.845 643.447 152.304 643.447 147.952V118C643.447 117.488 643.191 117.232 642.679 117.232H635.511C635.17 117.232 634.871 117.104 634.615 116.848C634.359 116.592 634.231 116.293 634.231 115.952V99.696C634.231 99.2693 634.359 98.9707 634.615 98.8C634.871 98.544 635.17 98.416 635.511 98.416H642.679C643.191 98.416 643.447 98.16 643.447 97.648V82.16C643.447 81.7333 643.575 81.4347 643.831 81.264C644.087 81.008 644.386 80.88 644.727 80.88H664.823C665.25 80.88 665.549 81.008 665.719 81.264C665.975 81.4347 666.103 81.7333 666.103 82.16V97.648C666.103 98.16 666.359 98.416 666.871 98.416H678.903C679.33 98.416 679.629 98.544 679.799 98.8C680.055 98.9707 680.183 99.2693 680.183 99.696V115.952C680.183 116.293 680.055 116.592 679.799 116.848C679.629 117.104 679.33 117.232 678.903 117.232H666.871C666.359 117.232 666.103 117.488 666.103 118V140.912Z" fill="#3081F9"/>
<path d="M708.158 63.472C710.803 63.472 713.15 64.0693 715.198 65.264C717.246 66.3733 718.825 67.952 719.934 70C721.129 72.048 721.726 74.3947 721.726 77.04C721.726 79.6853 721.129 82.032 719.934 84.08C718.825 86.0427 717.246 87.6213 715.198 88.816C713.15 89.9253 710.803 90.48 708.158 90.48C705.513 90.48 703.166 89.9253 701.118 88.816C699.07 87.6213 697.449 86.0427 696.254 84.08C695.06 82.032 694.462 79.6853 694.462 77.04C694.462 74.3947 695.06 72.048 696.254 70C697.449 67.952 699.07 66.3733 701.118 65.264C703.166 64.0693 705.513 63.472 708.158 63.472ZM718.398 98.416C718.825 98.416 719.124 98.544 719.294 98.8C719.55 98.9707 719.678 99.2693 719.678 99.696V164.72C719.678 165.061 719.55 165.36 719.294 165.616C719.124 165.872 718.825 166 718.398 166H697.918C697.577 166 697.278 165.872 697.022 165.616C696.766 165.36 696.638 165.061 696.638 164.72V118C696.638 117.488 696.382 117.232 695.87 117.232H689.854C689.513 117.232 689.214 117.104 688.958 116.848C688.702 116.592 688.574 116.293 688.574 115.952V99.696C688.574 99.2693 688.702 98.9707 688.958 98.8C689.214 98.544 689.513 98.416 689.854 98.416H718.398Z" fill="#3081F9"/>
<path d="M801.968 164.72C801.968 165.061 801.84 165.36 801.584 165.616C801.414 165.872 801.115 166 800.688 166H780.464C780.123 166 779.824 165.872 779.568 165.616C779.312 165.36 779.184 165.061 779.184 164.72V127.088C779.184 124.101 778.928 121.755 778.416 120.048C777.904 118.341 776.966 117.104 775.6 116.336C774.32 115.483 772.358 115.056 769.712 115.056C766.47 115.056 763.952 115.696 762.16 116.976C760.368 118.256 759.046 120.261 758.192 122.992C757.509 124.869 757.168 127.557 757.168 131.056V164.72C757.168 165.061 757.04 165.36 756.784 165.616C756.614 165.872 756.315 166 755.888 166H735.536C735.195 166 734.896 165.872 734.64 165.616C734.384 165.36 734.256 165.061 734.256 164.72V99.696C734.256 99.2693 734.384 98.9707 734.64 98.8C734.896 98.544 735.195 98.416 735.536 98.416H755.888C756.315 98.416 756.614 98.544 756.784 98.8C757.04 98.9707 757.168 99.2693 757.168 99.696V105.328C757.168 105.755 757.254 105.968 757.424 105.968C757.595 105.968 757.851 105.797 758.192 105.456C762.544 99.7387 768.987 96.88 777.52 96.88C782.982 96.88 787.291 97.648 790.448 99.184C793.606 100.635 795.995 102.725 797.616 105.456C797.702 105.797 797.915 105.968 798.256 105.968C798.512 105.968 798.811 105.797 799.152 105.456C801.797 102.725 804.87 100.635 808.368 99.184C811.867 97.648 816.176 96.88 821.296 96.88C827.952 96.88 833.115 97.8613 836.784 99.824C840.454 101.787 842.971 104.645 844.336 108.4C845.787 112.155 846.512 117.061 846.512 123.12V164.72C846.512 165.061 846.384 165.36 846.128 165.616C845.958 165.872 845.659 166 845.232 166H824.752C824.411 166 824.112 165.872 823.856 165.616C823.6 165.36 823.472 165.061 823.472 164.72V127.472C823.472 124.315 823.216 121.883 822.704 120.176C822.192 118.384 821.254 117.104 819.888 116.336C818.523 115.483 816.518 115.056 813.872 115.056C810.8 115.056 808.368 115.696 806.576 116.976C804.87 118.256 803.632 120.219 802.864 122.864C802.608 123.803 802.395 124.997 802.224 126.448C802.054 127.813 801.968 129.221 801.968 130.672V164.72Z" fill="#3081F9"/>
<path d="M918.689 164.592C912.801 166.555 905.292 167.536 896.161 167.536C886.604 167.536 879.009 166.213 873.377 163.568C867.831 160.837 863.863 156.912 861.473 151.792C859.084 146.587 857.889 140.016 857.889 132.08C857.889 120.731 860.79 112.027 866.593 105.968C872.396 99.9093 881.271 96.88 893.217 96.88C901.75 96.88 908.321 98.416 912.929 101.488C917.537 104.56 920.652 108.528 922.273 113.392C923.895 118.256 924.705 123.973 924.705 130.544C924.705 133.531 924.577 136.133 924.321 138.352C924.236 139.035 923.809 139.376 923.041 139.376H880.929C880.759 139.376 880.588 139.461 880.417 139.632C880.247 139.717 880.161 139.888 880.161 140.144C880.332 142.448 880.972 144.325 882.081 145.776C883.191 147.141 885.111 148.208 887.841 148.976C890.572 149.744 894.327 150.128 899.105 150.128C905.932 150.128 911.777 149.445 916.641 148.08H916.897C917.238 148.08 917.495 148.165 917.665 148.336C917.921 148.507 918.092 148.763 918.177 149.104L919.585 163.184V163.44C919.585 163.952 919.286 164.336 918.689 164.592ZM880.161 123.888C880.161 124.4 880.417 124.656 880.929 124.656H903.969C904.481 124.656 904.737 124.357 904.737 123.76C904.737 120.261 903.884 117.616 902.177 115.824C900.556 113.947 897.526 113.008 893.089 113.008C888.566 113.008 885.324 114.032 883.361 116.08C881.398 118.043 880.332 120.645 880.161 123.888Z" fill="#3081F9"/>
<path d="M933.24 163.44C932.899 163.355 932.643 163.184 932.472 162.928C932.387 162.587 932.43 162.203 932.6 161.776L936.056 147.056C936.142 146.629 936.355 146.331 936.696 146.16C937.038 145.989 937.379 145.989 937.72 146.16C944.291 149.061 950.862 150.512 957.432 150.512C960.078 150.512 961.912 150.256 962.936 149.744C964.046 149.147 964.6 148.037 964.6 146.416C964.6 145.307 964.344 144.453 963.832 143.856C963.32 143.259 962.254 142.661 960.632 142.064C959.096 141.381 956.366 140.485 952.44 139.376C948.003 138.181 944.547 136.901 942.072 135.536C939.598 134.085 937.72 132.08 936.44 129.52C935.16 126.96 934.52 123.461 934.52 119.024C934.52 111.088 936.867 105.413 941.56 102C946.254 98.5867 953.294 96.88 962.68 96.88C971.214 96.88 978.254 97.9467 983.8 100.08C984.312 100.507 984.526 100.976 984.44 101.488L980.344 116.08C980.259 116.421 980.088 116.677 979.832 116.848C979.576 116.933 979.32 116.891 979.064 116.72C976.419 115.696 973.774 114.971 971.128 114.544C968.483 114.117 965.624 113.904 962.552 113.904C959.992 113.904 958.158 114.203 957.048 114.8C955.939 115.397 955.384 116.464 955.384 118C955.384 119.024 955.598 119.835 956.024 120.432C956.451 120.944 957.347 121.499 958.712 122.096C960.163 122.693 962.467 123.419 965.624 124.272C970.915 125.637 974.968 127.173 977.784 128.88C980.686 130.501 982.734 132.592 983.928 135.152C985.123 137.627 985.72 140.912 985.72 145.008C985.72 150.64 984.696 155.12 982.648 158.448C980.686 161.691 977.656 164.037 973.56 165.488C969.55 166.853 964.344 167.536 957.944 167.536C953.422 167.536 949.027 167.195 944.76 166.512C940.494 165.829 936.654 164.805 933.24 163.44Z" fill="#3081F9"/>
<path d="M251.285 1.93658C250.427 1.80872 249.513 2.06444 248.636 1.95485C247.777 1.84525 246.955 1.35208 246.078 1.26075C245.219 1.16942 244.306 1.40687 243.429 1.31554C242.57 1.22421 241.675 1.37034 240.798 1.29728C239.939 1.22421 239.099 0.712773 238.222 0.63971C237.363 0.584912 236.467 0.676241 235.59 0.621444C234.713 0.566646 233.818 1.13289 232.941 1.09635C232.064 1.05982 231.242 0.0552042 230.365 0.0186726C229.488 -0.017859 228.611 0.164799 227.734 0.146533C226.857 0.128267 225.98 0.548381 225.103 0.530115C224.226 0.511849 223.367 0.365723 222.472 0.365723C221.595 0.347457 220.718 0.676241 219.841 0.676241C218.964 0.676241 218.105 0.76757 217.21 0.785836C216.333 0.785836 215.456 0.603178 214.579 0.621444C213.72 0.584912 212.843 -0.017859 211.948 0.00040678C211.07 0.0186726 210.212 0.840633 209.335 0.877165C208.458 0.895431 207.562 0.183065 206.685 0.219596C205.808 0.256128 204.931 0.237862 204.054 0.274394C203.177 0.310925 202.3 0.274394 201.423 0.310925C200.546 0.347457 199.688 0.457052 198.811 0.493583C197.933 0.530115 197.056 0.42052 196.179 0.475317C195.302 0.530115 194.444 0.785836 193.567 0.840633C192.69 0.895431 191.849 1.27901 190.972 1.33381C190.095 1.38861 189.236 1.4434 188.359 1.51647C187.482 1.57126 186.642 2.02791 185.765 2.10097C184.888 2.17404 183.974 1.69913 183.097 1.75392C182.22 1.82699 181.343 1.73566 180.466 1.80872C179.589 1.88178 178.712 1.91831 177.835 2.00964C176.958 2.08271 176.154 2.84987 175.277 2.92293C174.4 2.996 173.487 2.61242 172.61 2.68548C171.733 2.75854 170.91 3.36131 170.033 3.43438C169.156 3.5257 168.243 3.17865 167.366 3.26998C166.489 3.36131 165.593 3.17865 164.716 3.26998C163.839 3.36131 163.035 3.94582 162.158 4.03715C161.336 4.12848 160.423 3.83622 159.546 3.92755C158.669 4.01888 157.792 4.07368 156.933 4.18327C156.056 4.2746 155.161 4.14674 154.302 4.23807C153.425 4.3294 152.603 4.78604 151.726 4.89564C150.849 4.98697 150.045 5.58974 149.168 5.68107C148.291 5.79066 147.322 5.00523 146.445 5.09656C145.568 5.20616 144.728 5.55321 143.851 5.64454C142.974 5.75413 142.078 5.58974 141.201 5.69933C140.324 5.80893 139.557 6.72222 138.68 6.83181C137.803 6.94141 136.908 6.86834 136.049 6.97794C135.172 7.08753 134.24 6.72222 133.381 6.83181C132.504 6.94141 131.682 7.36152 130.805 7.47112C129.928 7.58071 129.051 7.59898 128.174 7.70857C127.297 7.81817 126.438 8.05562 125.579 8.16522C124.702 8.27481 123.807 8.18348 122.93 8.29308C122.053 8.40267 121.176 8.45747 120.299 8.56706C119.422 8.67666 118.545 8.67666 117.668 8.78625C116.791 8.89585 115.95 9.1881 115.073 9.2977C114.178 9.42556 113.283 9.27943 112.406 9.38902C111.529 9.49862 110.743 10.2475 109.866 10.3571C108.989 10.4667 108.076 10.284 107.217 10.3936C106.34 10.5032 105.426 10.3023 104.568 10.4119C103.69 10.5215 102.887 11.1973 102.01 11.3069C101.133 11.4165 100.237 11.2887 99.3602 11.38C98.4832 11.4896 97.661 11.9462 96.784 12.0558C95.907 12.1654 95.0482 12.2933 94.1712 12.4029C93.2942 12.5125 92.3623 12.0741 91.4853 12.1654C90.6083 12.275 89.7313 12.2568 88.8543 12.3481C87.9772 12.4577 87.1916 13.2248 86.3146 13.3344C85.4376 13.4258 84.5605 13.444 83.7018 13.5354C82.8248 13.6267 81.8747 13.0057 80.9976 13.1152C80.1206 13.2248 79.335 13.9007 78.4762 14.0285C77.6175 14.1381 76.7404 14.1564 75.8817 14.3025C75.0047 14.4486 74.0911 14.2295 73.2324 14.3756C72.3736 14.5217 71.5514 14.9418 70.6927 15.1062C69.8339 15.2706 69.0665 15.8551 68.2078 16.0378C67.349 16.2204 66.4355 16.0926 65.5767 16.2935C64.718 16.4944 63.9871 17.152 63.1467 17.3529C62.2879 17.5721 61.3378 17.3164 60.4973 17.5538C59.6568 17.7913 58.8895 18.321 58.0673 18.5767C57.2268 18.8324 56.2401 18.6132 55.4179 18.869C54.5774 19.143 53.7918 19.5631 52.9696 19.8371C52.1291 20.1293 51.3069 20.4216 50.503 20.7321C49.6808 21.0426 48.9134 21.4627 48.0912 21.7915C47.269 22.1203 46.2458 21.9376 45.4418 22.2664C44.6379 22.6135 44.1811 23.7459 43.3772 24.1113C42.5733 24.4766 41.4222 24.0565 40.6365 24.44C39.8508 24.8236 39.2844 25.6638 38.4988 26.0474C37.7131 26.4493 36.9092 26.7781 36.1418 27.1982C35.3744 27.6183 34.8445 28.4585 34.0954 28.8969C33.3463 29.3535 32.2135 29.1709 31.4826 29.6458C30.7335 30.1207 29.9661 30.5591 29.2535 31.034C28.5227 31.5272 28.1755 32.55 27.4629 33.0432C26.7504 33.5547 26.184 34.2488 25.5079 34.7785C24.8136 35.3265 23.7173 35.3447 23.0596 35.911C22.3835 36.4772 21.6344 36.9704 20.9949 37.5366C20.3372 38.1211 19.8987 38.9431 19.2774 39.5458C18.6562 40.1486 17.8157 40.5687 17.2128 41.1898C16.6098 41.8291 16.0434 42.5232 15.477 43.1625C14.8923 43.82 14.7644 44.8612 14.2163 45.537C13.6682 46.2129 12.5719 46.4868 12.0603 47.181C11.5304 47.875 11.4756 48.9162 10.9823 49.6286C10.489 50.3592 10.1784 51.1812 9.72159 51.9301C9.26481 52.679 8.3147 53.1356 7.89446 53.8845C7.45596 54.6517 6.94436 55.3823 6.56067 56.1495C6.1587 56.9349 6.12216 57.8847 5.75673 58.6884C5.39131 59.4738 5.06242 60.2958 4.73354 61.0995C4.40466 61.9032 3.94788 62.6703 3.65554 63.4923C3.3632 64.3143 2.76025 65.0449 2.50445 65.8851C2.24866 66.7253 2.35828 67.6752 2.13903 68.5154C1.91977 69.3556 1.38991 70.141 1.2072 70.9995C1.02448 71.858 1.11584 72.7713 0.96967 73.6298C0.8235 74.4883 0.622517 75.3468 0.512889 76.2236C0.403262 77.082 0.951399 78.0136 0.878314 78.8904C0.768686 79.7671 0.0378374 80.5891 0.00129498 81.4658C-0.0352475 82.3243 0.713873 83.2194 0.695602 84.0961C0.695602 84.9546 0.768686 85.8131 0.786958 86.6898C0.805229 87.5483 0.8235 88.4068 0.878314 89.2836C0.933127 90.1421 0.257092 91.0736 0.348448 91.9504C0.439804 92.8089 0.67733 93.6674 0.786958 94.5441C0.896585 95.4026 0.96967 96.2794 1.11584 97.1562C1.26201 98.0146 1.79188 98.8001 1.97459 99.6586C2.13903 100.517 2.43137 101.321 2.63235 102.179C2.81506 103.019 2.63235 103.969 2.85161 104.81C3.07086 105.65 2.92469 106.6 3.16222 107.44C3.39974 108.28 3.96615 109.029 4.22195 109.869C4.47775 110.691 4.80663 111.513 5.09897 112.335C5.37304 113.157 5.57402 114.015 5.88463 114.837C6.19524 115.641 6.23178 116.573 6.56067 117.395C6.88955 118.235 7.96755 118.746 8.29643 119.55C8.62531 120.372 8.91765 121.212 9.26481 122.016C9.61196 122.838 9.9043 123.678 10.2332 124.482C10.5803 125.304 10.6534 126.235 11.0006 127.039C11.3477 127.861 11.6401 128.701 11.9872 129.505C12.3344 130.327 12.7546 131.112 13.1018 131.916C13.4489 132.738 13.5768 133.651 13.924 134.455C14.2894 135.277 14.4538 136.172 14.801 136.957C15.1664 137.779 15.6597 138.528 16.0252 139.314C16.4089 140.117 17.1762 140.738 17.5599 141.524C17.9436 142.327 18.3821 143.095 18.7658 143.88C19.1495 144.684 19.7708 145.36 20.1727 146.127C20.5747 146.912 21.0497 147.661 21.4517 148.446C21.872 149.232 21.8902 150.218 22.3105 150.985C22.7307 151.771 22.7672 152.757 23.2058 153.524C23.6443 154.292 24.3386 154.913 24.7771 155.68C25.2339 156.447 26.0926 156.94 26.5494 157.689C27.0062 158.438 27.2985 159.296 27.7736 160.027C28.2486 160.776 28.34 161.762 28.8333 162.493C29.3266 163.224 29.9478 163.863 30.4594 164.593C30.9528 165.306 31.9211 165.708 32.4327 166.438C32.9443 167.151 32.9809 168.21 33.5107 168.922C34.0406 169.617 34.9176 170.055 35.4657 170.749C35.9956 171.443 35.9956 172.557 36.562 173.251C37.1102 173.927 38.0237 174.329 38.5901 175.005C39.1383 175.681 39.9787 176.137 40.5451 176.813C41.1116 177.471 41.6231 178.183 42.2078 178.859C42.7742 179.517 43.1945 180.32 43.7974 180.978C44.3821 181.635 44.711 182.512 45.3139 183.17C45.8986 183.809 46.6843 184.302 47.2872 184.96C47.8719 185.599 48.2921 186.421 48.8951 187.079C49.498 187.718 50.1741 188.284 50.7953 188.923C51.3983 189.563 51.9464 190.257 52.5493 190.896C53.1523 191.517 53.8466 192.083 54.4678 192.723C55.0708 193.344 56.0209 193.654 56.6421 194.294C57.245 194.915 57.4643 195.938 58.1038 196.577C58.7067 197.198 59.7665 197.399 60.3877 198.02C61.0089 198.641 61.5571 199.335 62.1783 199.956C62.7995 200.577 63.3111 201.289 63.9506 201.929C64.5718 202.532 65.2661 203.079 65.9056 203.701C66.5268 204.303 67.0201 205.052 67.6596 205.673C68.2809 206.276 69.1213 206.678 69.7608 207.299C70.3821 207.902 70.5282 209.016 71.1677 209.655C71.7889 210.258 72.8669 210.422 73.5064 211.062C74.1277 211.664 74.5662 212.486 75.2239 213.107C75.8452 213.71 76.174 214.642 76.8135 215.263C77.4348 215.866 78.1839 216.377 78.8234 216.98C79.4629 217.583 80.212 218.094 80.8515 218.715C81.4727 219.318 81.9477 220.103 82.5872 220.724C83.2267 221.327 83.848 221.966 84.4874 222.587C85.1269 223.19 86.2963 223.245 86.9541 223.866C87.5936 224.469 87.8859 225.437 88.5254 226.04C89.1649 226.642 90.0236 227.008 90.6631 227.592C91.3209 228.195 91.467 229.327 92.1065 229.912C92.7643 230.496 93.8971 230.533 94.5549 231.099C95.2309 231.665 95.7608 232.396 96.4186 232.962C97.0946 233.529 97.7341 234.131 98.4101 234.661C99.1044 235.209 100.036 235.446 100.712 235.976C101.407 236.524 101.589 237.73 102.284 238.259C102.996 238.789 104.001 238.899 104.695 239.41C105.408 239.922 106.047 240.543 106.76 241.036C107.491 241.547 108.185 242.077 108.898 242.552C109.629 243.045 110.506 243.301 111.237 243.776C111.986 244.251 112.844 244.506 113.594 244.963C114.343 245.42 114.891 246.187 115.658 246.625C116.426 247.064 117.083 247.685 117.851 248.105C118.618 248.525 119.477 248.799 120.244 249.201C121.03 249.602 122.035 249.548 122.82 249.931C123.606 250.315 124.246 250.991 125.031 251.356C125.835 251.721 126.639 252.068 127.425 252.415C128.229 252.762 129.069 253.036 129.873 253.365C130.695 253.694 131.408 254.242 132.23 254.553C133.052 254.863 133.948 254.973 134.77 255.247C135.61 255.521 136.359 256.032 137.2 256.288C138.04 256.543 138.826 256.982 139.667 257.201C140.507 257.42 141.457 257.311 142.298 257.512C143.156 257.712 144.07 257.585 144.929 257.767C145.787 257.95 146.518 258.772 147.377 258.918C148.236 259.064 149.222 258.425 150.081 258.534C150.958 258.644 151.762 259.192 152.621 259.283C153.498 259.375 154.338 259.959 155.197 260.014C156.074 260.069 156.988 259.229 157.865 259.265C158.742 259.302 159.6 259.831 160.477 259.831C161.354 259.831 162.213 259.484 163.09 259.466C163.967 259.448 164.826 259.411 165.703 259.356C166.58 259.302 167.457 259.393 168.334 259.32C169.211 259.229 170.052 259.009 170.929 258.9C171.787 258.79 172.756 259.247 173.614 259.119C174.473 258.991 175.332 258.754 176.191 258.589C177.049 258.425 177.89 258.133 178.749 257.932C179.607 257.749 180.357 257.146 181.215 256.945C182.056 256.726 183.042 257.018 183.883 256.781C184.723 256.543 185.473 255.995 186.313 255.74C187.153 255.484 187.793 254.662 188.633 254.388C189.456 254.114 190.588 254.68 191.411 254.37C192.233 254.078 192.945 253.475 193.749 253.146C194.553 252.836 195.229 252.16 196.033 251.831C196.837 251.484 197.751 251.411 198.555 251.045C199.34 250.698 200.071 250.169 200.857 249.785C201.643 249.42 202.337 248.835 203.123 248.452C203.908 248.068 204.968 248.251 205.754 247.831C206.521 247.429 207.234 246.881 208.001 246.461C208.768 246.041 209.262 245.146 210.029 244.707C210.778 244.269 211.546 243.867 212.295 243.41C213.044 242.972 213.866 242.661 214.615 242.205C215.346 241.748 216.479 241.876 217.21 241.401C217.94 240.926 218.397 240.031 219.128 239.538C219.859 239.063 220.352 238.241 221.083 237.748C221.796 237.255 222.709 237.054 223.44 236.542C224.153 236.049 224.902 235.574 225.614 235.063C226.327 234.551 227.003 234.022 227.716 233.492C228.41 232.981 229.159 232.524 229.853 231.976C230.548 231.446 230.895 230.478 231.589 229.948C232.283 229.419 233.069 229.017 233.763 228.469C234.439 227.921 235.28 227.574 235.956 227.008C236.632 226.46 237.235 225.802 237.911 225.236C238.587 224.67 239.117 223.957 239.793 223.391C240.469 222.807 241.437 222.606 242.095 222.039C242.771 221.455 243.538 220.998 244.196 220.432C244.872 219.847 245.092 218.752 245.749 218.185C246.425 217.601 247.174 217.144 247.832 216.578C248.508 215.993 249.367 215.646 250.025 215.08C250.701 214.496 251.687 214.295 252.345 213.747C253.021 213.162 253.076 211.884 253.734 211.317C254.41 210.733 255.579 210.751 256.237 210.185C256.913 209.6 257.717 209.199 258.375 208.632C259.051 208.048 259.106 206.769 259.782 206.203C260.458 205.618 261.225 205.18 261.883 204.614C262.559 204.029 263.673 203.993 264.331 203.427C265.007 202.842 265.738 202.349 266.396 201.783C267.072 201.198 267.456 200.303 268.113 199.737C268.789 199.152 269.246 198.33 269.886 197.764C270.562 197.18 271.439 196.833 272.078 196.266C272.736 195.664 273.138 194.787 273.777 194.221C274.435 193.618 275.586 193.581 276.226 192.997C276.883 192.394 277.212 191.444 277.834 190.86C278.491 190.239 278.912 189.435 279.533 188.832C280.172 188.211 280.885 187.7 281.506 187.079C282.146 186.458 282.529 185.617 283.132 184.996C283.753 184.357 285.069 184.394 285.654 183.754C286.257 183.097 286.458 182.092 287.024 181.435C287.609 180.777 288.303 180.211 288.869 179.553C289.436 178.877 289.637 177.909 290.185 177.233C290.733 176.558 291.354 175.918 291.884 175.224C292.414 174.53 293.346 174.128 293.857 173.416C294.369 172.703 294.369 171.644 294.862 170.913C295.356 170.201 296.361 169.799 296.836 169.069C297.311 168.338 297.95 167.699 298.407 166.931C298.864 166.183 298.992 165.251 299.43 164.484C299.869 163.735 300.124 162.876 300.563 162.109C300.983 161.36 301.513 160.648 301.915 159.863C302.317 159.095 302.354 158.146 302.737 157.342C303.121 156.575 304.162 156.1 304.546 155.296C304.911 154.511 304.546 153.378 304.911 152.556C305.277 151.771 306.154 151.205 306.519 150.401C306.867 149.615 306.958 148.702 307.323 147.88C307.67 147.095 308.072 146.309 308.42 145.487C308.748 144.702 309.278 143.953 309.607 143.131C309.936 142.327 310.21 141.505 310.539 140.665C310.868 139.862 311.361 139.131 311.69 138.291C312.001 137.487 311.617 136.391 311.928 135.551C312.238 134.747 312.768 133.998 313.079 133.176C313.389 132.373 314.047 131.678 314.358 130.838C314.668 130.035 315.07 129.231 315.381 128.409C315.692 127.605 315.509 126.582 315.819 125.76C316.13 124.938 317.208 124.39 317.5 123.568C317.793 122.747 317.829 121.815 318.085 120.993C318.341 120.153 318.396 119.258 318.633 118.418C318.871 117.577 319.218 116.755 319.437 115.915C319.656 115.057 320.186 114.289 320.387 113.431C320.588 112.572 320.771 111.714 320.954 110.855C321.136 109.997 321.228 109.12 321.392 108.243C321.538 107.385 321.173 106.435 321.301 105.558C321.429 104.682 321.721 103.841 321.831 102.983C321.94 102.106 321.611 101.193 321.703 100.334C321.794 99.4576 322.196 98.6174 322.269 97.7589C322.342 96.8822 322.287 96.0054 322.324 95.1287C322.361 94.2519 322.105 93.3751 322.123 92.4984C322.141 91.6216 323 90.7449 323 89.8864C323 89.0096 322.269 88.1511 322.251 87.2744C322.233 86.3976 322.415 85.5208 322.361 84.6441C322.306 83.7673 322.361 82.8906 322.306 82.0138C322.233 81.1371 322.16 80.2603 322.068 79.4018C321.977 78.525 322.086 77.63 321.977 76.7533C321.867 75.8765 321.575 75.0363 321.429 74.1778C321.283 73.3193 320.844 72.4973 320.68 71.6388C320.515 70.7803 320.497 69.8853 320.296 69.0268C320.113 68.1683 320.46 67.182 320.241 66.3418C320.022 65.4833 319.455 64.7161 319.218 63.8759C318.98 63.0357 318.651 62.2137 318.396 61.3735C318.14 60.5332 317.975 59.6747 317.683 58.8345C317.409 58.0126 316.623 57.355 316.313 56.533C316.002 55.7111 316.057 54.7613 315.746 53.9393C315.417 53.1173 314.924 52.3867 314.577 51.583C314.23 50.7793 314.23 49.8112 313.864 49.0258C313.499 48.2404 312.658 47.6741 312.257 46.8887C311.855 46.1033 311.818 45.1352 311.398 44.368C310.978 43.6009 310.155 43.0529 309.717 42.304C309.278 41.5551 308.657 40.9158 308.182 40.1669C307.725 39.418 307.561 38.4864 307.086 37.7558C306.592 37.0252 306.19 36.258 305.679 35.5456C305.167 34.8333 304.309 34.3949 303.779 33.7008C303.249 33.0067 303.322 31.8377 302.774 31.1436C302.226 30.4677 301.276 30.1207 300.691 29.4449C300.124 28.7873 299.467 28.1845 298.882 27.5452C298.297 26.9059 297.585 26.3762 296.982 25.7369C296.361 25.1159 296.342 23.8921 295.703 23.2893C295.063 22.6865 293.93 22.6317 293.273 22.0472C292.615 21.4627 292.14 20.6956 291.464 20.1293C290.788 19.5631 289.856 19.3256 289.18 18.7959C288.486 18.2662 287.992 17.4808 287.28 16.9693C286.567 16.4579 286.184 15.4715 285.471 14.9784C284.74 14.4852 283.607 14.613 282.876 14.1381C282.146 13.6632 281.287 13.4075 280.519 12.9691C279.77 12.5307 279.039 12.0558 278.272 11.6357C277.505 11.2156 276.993 10.3023 276.207 9.91873C275.422 9.53515 274.581 9.26116 273.777 8.89585C272.992 8.53053 271.968 8.67666 271.165 8.32961C270.361 8.00082 269.812 7.01447 268.99 6.70395C268.168 6.39343 267.09 6.81355 266.268 6.52129C265.446 6.24731 264.806 5.40708 263.966 5.15136C263.125 4.89564 262.139 5.16963 261.298 4.95044C260.458 4.71298 259.708 4.12848 258.85 3.92755C258.009 3.72663 257.224 3.14212 256.365 2.95947C255.506 2.77681 254.666 2.46629 253.789 2.32016C253.058 2.06444 252.162 2.04618 251.285 1.93658ZM115.567 184.43C114.653 185.362 114.525 184.686 113.228 184.686C111.931 184.686 111.931 184.302 110.615 184.302C109.318 184.302 109.318 184.631 108.003 184.631C106.705 184.631 106.705 184.85 105.39 184.85C104.092 184.85 104.092 184.412 102.777 184.412C101.461 184.412 101.461 184.576 100.164 184.576C98.8486 184.576 98.1178 185.964 97.2042 185.051C96.2724 184.138 98.0264 183.407 98.0264 182.092C98.0264 180.795 97.8072 180.795 97.8072 179.48C97.8072 178.183 97.3687 178.183 97.3687 176.868C97.3687 175.571 97.4966 175.571 97.4966 174.256C97.4966 172.959 97.1677 172.959 97.1677 171.644C97.1677 170.329 97.0763 170.329 97.0763 169.032C97.0763 167.735 96.4368 167.151 97.3504 166.219C98.2639 165.288 98.8486 166.749 100.146 166.749C101.443 166.749 101.443 165.945 102.759 165.945C104.056 165.945 104.056 166.676 105.371 166.676C106.669 166.676 106.669 166.731 107.984 166.731C109.281 166.731 109.281 166.804 110.597 166.804C111.913 166.804 111.913 166.749 113.21 166.749C114.525 166.749 114.544 165.854 115.475 166.767C116.407 167.68 115.53 167.717 115.53 169.014C115.53 170.311 115.859 170.311 115.859 171.626C115.859 172.923 115.859 172.923 115.859 174.238C115.859 175.535 116.243 175.535 116.243 176.85C116.243 178.147 115.695 178.147 115.695 179.462C115.695 180.777 115.329 180.832 115.549 182.129C115.75 183.371 116.499 183.499 115.567 184.43ZM115.567 111.367C114.653 112.299 114.525 111.623 113.228 111.623C111.931 111.623 111.931 111.239 110.615 111.239C109.318 111.239 109.318 111.568 108.003 111.568C106.705 111.568 106.705 111.787 105.39 111.787C104.092 111.787 104.092 111.349 102.777 111.349C101.461 111.349 101.461 111.513 100.164 111.513C98.8486 111.513 98.8304 111.056 97.8985 111.988C96.9667 112.901 97.0763 112.938 97.0763 114.235C97.0763 115.532 97.2956 115.532 97.2956 116.847C97.2956 118.144 97.7341 118.144 97.7341 119.459C97.7341 120.756 97.6062 120.756 97.6062 122.071C97.6062 123.368 97.9351 123.368 97.9351 124.683C97.9351 125.998 98.0264 125.998 98.0264 127.295C98.0264 128.61 96.8205 128.792 97.7524 129.724C98.6659 130.656 98.8669 130.254 100.164 130.254C101.461 130.254 101.461 129.45 102.777 129.45C104.074 129.45 104.074 130.181 105.39 130.181C106.687 130.181 106.687 130.236 108.003 130.236C109.3 130.236 109.3 130.309 110.615 130.309C111.931 130.309 111.931 130.254 113.228 130.254C114.544 130.254 114.562 129.359 115.494 130.272C116.426 131.185 115.549 131.222 115.549 132.519C115.549 133.816 115.877 133.816 115.877 135.131C115.877 136.428 115.877 136.428 115.877 137.743C115.877 139.04 116.261 139.04 116.261 140.355C116.261 141.652 115.713 141.652 115.713 142.967C115.713 144.282 115.549 144.282 115.549 145.579C115.549 146.894 116.535 147.04 115.603 147.972C114.69 148.885 114.525 148.574 113.228 148.574C111.931 148.574 111.931 148.099 110.615 148.099C109.318 148.099 109.318 148.611 108.003 148.611C106.705 148.611 106.705 148.191 105.39 148.191C104.092 148.191 104.092 147.917 102.777 147.917C101.48 147.917 101.48 148.41 100.164 148.41C98.8669 148.41 98.8669 148.026 97.5514 148.026C96.2541 148.026 96.2541 147.99 94.9386 147.99C93.6413 147.99 93.6413 147.771 92.3258 147.771C91.0285 147.771 91.0285 148.136 89.713 148.136C88.4158 148.136 88.4158 148.629 87.1002 148.629C85.803 148.629 85.803 147.734 84.4874 147.734C83.1902 147.734 83.1902 147.972 81.8747 147.972C80.5591 147.972 80.5591 147.716 79.2619 147.716C77.9646 147.716 77.9646 148.538 76.6491 148.538C75.3518 148.538 75.3518 148.355 74.0363 148.355C72.7208 148.355 72.7208 147.88 71.4235 147.88C70.1263 147.88 70.1263 148.209 68.8107 148.209C67.4952 148.209 67.4952 148.136 66.1979 148.136C64.8824 148.136 64.8824 148.264 63.5852 148.264C62.2879 148.264 61.9956 149.031 61.0637 148.099C60.1319 147.186 61.1734 146.894 61.1734 145.597C61.1734 144.3 61.283 144.3 61.283 142.985C61.283 141.688 61.082 141.688 61.082 140.373C61.082 139.076 61.3195 139.076 61.3195 137.761C61.3195 136.464 60.68 136.464 60.68 135.149C60.68 133.852 60.9724 133.852 60.9724 132.537C60.9724 131.24 61.283 131.24 61.283 129.925C61.283 128.628 60.7166 128.628 60.7166 127.313C60.7166 126.016 60.9541 126.016 60.9541 124.701C60.9541 123.404 60.6069 123.404 60.6069 122.089C60.6069 120.792 60.5887 120.792 60.5887 119.477C60.5887 118.18 61.1368 118.18 61.1368 116.865C61.1368 115.568 61.2647 115.568 61.2647 114.253C61.2647 112.938 60.5704 112.938 60.5704 111.641C60.5704 110.344 60.6618 110.344 60.6618 109.029C60.6618 107.732 61.4109 107.732 61.4109 106.417C61.4109 105.102 60.8628 105.102 60.8628 103.805C60.8628 102.508 60.9724 102.508 60.9724 101.193C60.9724 99.8778 61.3378 99.8778 61.3378 98.5809C61.3378 97.2657 61.082 97.2657 61.082 95.9689C61.082 94.6537 59.8213 94.051 60.7531 93.1194C61.6667 92.1879 62.2696 93.3569 63.5852 93.3569C64.8824 93.3569 64.8824 92.9002 66.1979 92.9002C67.4952 92.9002 67.4952 93.3751 68.8107 93.3751C70.108 93.3751 70.108 93.0646 71.4235 93.0646C72.7208 93.0646 72.7208 93.5578 74.0363 93.5578C75.3518 93.5578 75.3518 93.4117 76.6491 93.4117C77.9646 93.4117 78.3666 94.3067 79.2984 93.3934C80.2302 92.4801 79.1705 92.06 79.1705 90.7631C79.1705 89.4663 79.7369 89.4662 79.7369 88.1511C79.7369 86.8542 78.8782 86.8542 78.8782 85.5391C78.8782 84.2422 79.7369 84.2422 79.7369 82.9271C79.7369 81.6302 79.2436 81.6302 79.2436 80.3151C79.2436 79 79.335 79 79.335 77.7031C79.335 76.4062 79.9196 76.2784 78.9878 75.3651C78.0742 74.4335 77.9646 74.744 76.6491 74.744C75.3518 74.744 75.3518 74.6892 74.0363 74.6892C72.739 74.6892 72.739 75.3103 71.4235 75.3103C70.1263 75.3103 70.1263 75.5112 68.8107 75.5112C67.5135 75.5112 67.5135 74.8536 66.1979 74.8536C64.8824 74.8536 64.8824 74.7258 63.5852 74.7258C62.2696 74.7258 61.9408 75.9496 61.0272 75.0363C60.0954 74.123 61.3561 73.7942 61.3561 72.4791C61.3561 71.1822 61.3013 71.1822 61.3013 69.8671C61.3013 68.5702 60.7349 68.5702 60.7349 67.2551C60.7349 65.9582 61.4292 65.9582 61.4292 64.643C61.4292 63.3462 60.881 63.3462 60.881 62.031C60.881 60.7159 60.68 60.7159 60.68 59.419C60.68 58.1039 60.2598 57.9212 61.1734 56.9897C62.0869 56.0764 62.2879 57.1723 63.5852 57.1723C64.8824 57.1723 64.8824 56.7888 66.1979 56.7888C67.4952 56.7888 67.4952 56.7888 68.8107 56.7888C70.108 56.7888 70.108 56.9531 71.4235 56.9531C72.7208 56.9531 72.7208 57.3002 74.0363 57.3002C75.3336 57.3002 75.3336 56.9349 76.6491 56.9349C77.9464 56.9349 77.9464 57.2819 79.2619 57.2819C80.5591 57.2819 80.5591 57.0262 81.8747 57.0262C83.1719 57.0262 83.1719 57.0993 84.4874 57.0993C85.7847 57.0993 85.7847 56.46 87.1002 56.46C88.3975 56.46 88.3975 57.1358 89.713 57.1358C91.0103 57.1358 91.0103 56.3504 92.3258 56.3504C93.6231 56.3504 93.6231 56.2773 94.9386 56.2773C96.2541 56.2773 96.2541 56.2956 97.5514 56.2956C98.8486 56.2956 98.8486 57.0445 100.164 57.0445C101.461 57.0445 101.461 56.8983 102.777 56.8983C104.092 56.8983 104.092 56.9531 105.39 56.9531C106.687 56.9531 106.687 56.5513 108.003 56.5513C109.318 56.5513 109.318 56.4234 110.615 56.4234C111.931 56.4234 111.931 56.8436 113.228 56.8436C114.525 56.8436 114.598 56.186 115.53 57.0993C116.462 58.0126 115.713 58.0856 115.713 59.3825C115.713 60.6794 115.768 60.6794 115.768 61.9945C115.768 63.2914 115.658 63.2914 115.658 64.6065C115.658 65.9034 115.366 65.9034 115.366 67.2185C115.366 68.5154 116.17 68.5154 116.17 69.8305C116.17 71.1274 116.133 71.1274 116.133 72.4425C116.133 73.7394 116.097 73.7394 116.097 75.0545C116.097 76.3514 115.823 76.3514 115.823 77.6665C115.823 78.9634 115.786 78.9634 115.786 80.2786C115.786 81.5754 115.859 81.5754 115.859 82.8906C115.859 84.1874 115.603 84.1874 115.603 85.5026C115.603 86.7995 115.384 86.7995 115.384 88.1146C115.384 89.4115 115.53 89.4115 115.53 90.7266C115.53 92.0417 115.969 92.0417 115.969 93.3386C115.969 94.6355 116.024 94.6355 116.024 95.9506C116.024 97.2475 116.279 97.2475 116.279 98.5626C116.279 99.8778 116.352 99.8778 116.352 101.175C116.352 102.471 115.914 102.471 115.914 103.787C115.914 105.102 115.457 105.102 115.457 106.399C115.457 107.714 115.53 107.75 115.75 109.029C115.932 110.271 116.499 110.435 115.567 111.367ZM170.38 184.43C169.467 185.362 169.339 184.686 168.042 184.686C166.745 184.686 166.745 184.302 165.429 184.302C164.132 184.302 164.132 184.631 162.816 184.631C161.519 184.631 161.519 184.85 160.203 184.85C158.906 184.85 158.906 184.412 157.591 184.412C156.275 184.412 156.275 184.576 154.978 184.576C153.662 184.576 152.931 185.964 152.018 185.051C151.086 184.138 152.84 183.407 152.84 182.092C152.84 180.795 152.621 180.795 152.621 179.48C152.621 178.183 152.182 178.183 152.182 176.868C152.182 175.571 152.31 175.571 152.31 174.256C152.31 172.959 151.981 172.959 151.981 171.644C151.981 170.329 151.89 170.329 151.89 169.032C151.89 167.735 151.251 167.151 152.164 166.219C153.078 165.288 153.662 166.749 154.96 166.749C156.257 166.749 156.257 165.945 157.572 165.945C158.87 165.945 158.87 166.676 160.185 166.676C161.482 166.676 161.482 166.731 162.798 166.731C164.095 166.731 164.095 166.804 165.411 166.804C166.726 166.804 166.726 166.749 168.023 166.749C169.339 166.749 169.357 165.854 170.289 166.767C171.221 167.68 170.344 167.717 170.344 169.014C170.344 170.311 170.673 170.311 170.673 171.626C170.673 172.923 170.673 172.923 170.673 174.238C170.673 175.535 171.057 175.535 171.057 176.85C171.057 178.147 170.508 178.147 170.508 179.462C170.508 180.777 170.143 180.832 170.362 182.129C170.563 183.371 171.312 183.499 170.38 184.43ZM188.652 74.8354C187.738 75.7669 187.61 75.0911 186.313 75.0911C185.016 75.0911 185.016 74.7075 183.7 74.7075C182.403 74.7075 182.403 75.0363 181.087 75.0363C179.79 75.0363 179.79 75.2555 178.475 75.2555C177.177 75.2555 177.177 74.8171 175.862 74.8171C174.546 74.8171 174.546 74.9815 173.249 74.9815C171.934 74.9815 171.915 74.5248 170.983 75.4564C170.052 76.3697 170.161 76.4062 170.161 77.7031C170.161 79 170.38 79 170.38 80.3151C170.38 81.612 170.819 81.612 170.819 82.9271C170.819 84.224 170.691 84.224 170.691 85.5391C170.691 86.836 171.02 86.836 171.02 88.1511C171.02 89.4662 171.111 89.4663 171.111 90.7631C171.111 92.06 169.905 92.2609 170.837 93.1925C171.751 94.124 171.952 93.7222 173.249 93.7222C174.546 93.7222 174.546 92.9185 175.862 92.9185C177.159 92.9185 177.159 93.6491 178.475 93.6491C179.772 93.6491 179.772 93.7039 181.087 93.7039C182.385 93.7039 182.385 93.777 183.7 93.777C185.016 93.777 185.016 93.7222 186.313 93.7222C187.629 93.7222 187.647 92.8272 188.579 93.7404C189.492 94.6537 188.633 94.6903 188.633 95.9871C188.633 97.284 188.962 97.284 188.962 98.5992C188.962 99.896 188.962 99.896 188.962 101.211C188.962 102.508 189.346 102.508 189.346 103.823C189.346 105.12 188.798 105.12 188.798 106.435C188.798 107.732 188.633 107.732 188.633 109.047C188.633 110.344 188.597 110.344 188.597 111.659C188.597 112.956 189.291 112.956 189.291 114.271C189.291 115.568 188.816 115.568 188.816 116.883C188.816 118.18 189.328 118.18 189.328 119.495C189.328 120.792 188.908 120.792 188.908 122.107C188.908 123.404 188.633 123.404 188.633 124.719C188.633 126.016 189.127 126.016 189.127 127.331C189.127 128.646 188.743 128.646 188.743 129.943C188.743 131.24 188.707 131.24 188.707 132.555C188.707 133.852 188.487 133.852 188.487 135.167C188.487 136.482 188.853 136.482 188.853 137.779C188.853 139.076 189.346 139.076 189.346 140.391C189.346 141.706 188.451 141.706 188.451 143.003C188.451 144.318 188.688 144.318 188.688 145.615C188.688 146.912 189.492 146.967 188.56 147.899C187.647 148.83 187.61 148.574 186.295 148.574C184.997 148.574 184.997 148.392 183.682 148.392C182.385 148.392 182.385 147.917 181.069 147.917C179.772 147.917 179.772 148.246 178.456 148.246C177.159 148.246 177.159 148.173 175.844 148.173C174.546 148.173 174.546 148.3 173.231 148.3C171.934 148.3 171.934 148.099 170.618 148.099C169.321 148.099 169.321 148.045 168.005 148.045C166.708 148.045 166.708 147.935 165.392 147.935C164.095 147.935 164.095 148.136 162.78 148.136C161.482 148.136 161.482 147.899 160.167 147.899C158.87 147.899 158.87 148.538 157.554 148.538C156.257 148.538 156.257 148.246 154.941 148.246C153.626 148.246 153.626 147.935 152.329 147.935C151.031 147.935 151.031 148.501 149.716 148.501C148.418 148.501 148.418 148.264 147.103 148.264C145.787 148.264 145.787 148.611 144.49 148.611C143.193 148.611 143.193 148.629 141.877 148.629C140.562 148.629 140.562 148.081 139.265 148.081C137.949 148.081 137.949 147.953 136.652 147.953C135.336 147.953 134.678 149.451 133.747 148.52C132.815 147.606 133.71 146.93 133.71 145.634C133.71 144.337 134.459 144.337 134.459 143.022C134.459 141.725 133.911 141.725 133.911 140.41C133.911 139.113 134.021 139.113 134.021 137.798C134.021 136.501 134.386 136.501 134.386 135.186C134.386 133.87 134.13 133.87 134.13 132.574C134.13 131.277 132.888 130.656 133.801 129.742C134.715 128.811 135.318 129.98 136.634 129.98C137.931 129.98 137.931 129.523 139.246 129.523C140.544 129.523 140.544 129.998 141.859 129.998C143.156 129.998 143.156 129.688 144.472 129.688C145.769 129.688 145.769 130.181 147.085 130.181C148.4 130.181 148.4 130.035 149.697 130.035C151.013 130.035 151.415 130.93 152.347 130.016C153.279 129.103 152.219 128.683 152.219 127.386C152.219 126.089 152.785 126.089 152.785 124.774C152.785 123.477 151.927 123.477 151.927 122.162C151.927 120.865 152.785 120.865 152.785 119.55C152.785 118.253 152.292 118.253 152.292 116.938C152.292 115.623 152.383 115.623 152.383 114.326C152.383 113.029 152.968 112.901 152.036 111.988C151.123 111.056 151.013 111.367 149.697 111.367C148.4 111.367 148.4 111.312 147.085 111.312C145.787 111.312 145.787 111.933 144.472 111.933C143.175 111.933 143.175 112.134 141.859 112.134C140.562 112.134 140.562 111.477 139.246 111.477C137.931 111.477 137.931 111.349 136.634 111.349C135.318 111.349 134.989 112.572 134.076 111.659C133.162 110.746 134.404 110.417 134.404 109.102C134.404 107.805 134.35 107.805 134.35 106.49C134.35 105.193 133.783 105.193 133.783 103.878C133.783 102.581 134.478 102.581 134.478 101.266C134.478 99.9691 133.929 99.9691 133.929 98.6539C133.929 97.3571 133.728 97.3571 133.728 96.0419C133.728 94.7451 134.295 94.7451 134.295 93.4299C134.295 92.1331 134.404 92.1331 134.404 90.8179C134.404 89.5211 134.021 89.521 134.021 88.2059C134.021 86.909 134.021 86.909 134.021 85.5939C134.021 84.297 134.185 84.297 134.185 82.9819C134.185 81.685 134.532 81.685 134.532 80.3699C134.532 79.073 134.167 79.073 134.167 77.7579C134.167 76.4427 134.514 76.4427 134.514 75.1459C134.514 73.849 134.258 73.849 134.258 72.5339C134.258 71.237 134.331 71.237 134.331 69.9219C134.331 68.6067 133.692 68.6067 133.692 67.3098C133.692 66.013 134.368 66.013 134.368 64.6978C134.368 63.3827 133.582 63.3827 133.582 62.0858C133.582 60.7707 133.509 60.7707 133.509 59.4738C133.509 58.1587 132.742 57.4281 133.674 56.4965C134.587 55.5649 135.318 57.0993 136.634 57.0993C137.931 57.0993 137.931 56.9531 139.246 56.9531C140.544 56.9531 140.544 57.0079 141.859 57.0079C143.156 57.0079 143.156 56.6061 144.472 56.6061C145.769 56.6061 145.769 56.4782 147.085 56.4782C148.382 56.4782 148.382 56.8983 149.697 56.8983C150.995 56.8983 150.995 57.2819 152.31 57.2819C153.607 57.2819 153.607 56.9714 154.923 56.9714C156.22 56.9714 156.22 56.9166 157.536 56.9166C158.833 56.9166 158.833 57.0262 160.149 57.0262C161.446 57.0262 161.446 57.3185 162.761 57.3185C164.059 57.3185 164.059 56.5148 165.374 56.5148C166.671 56.5148 166.671 56.5513 167.987 56.5513C169.302 56.5513 169.302 56.5878 170.6 56.5878C171.897 56.5878 171.897 56.8618 173.213 56.8618C174.51 56.8618 174.51 56.8983 175.825 56.8983C177.141 56.8983 177.141 56.8253 178.438 56.8253C179.735 56.8253 179.735 57.081 181.051 57.081C182.366 57.081 182.366 57.3002 183.664 57.3002C184.979 57.3002 184.979 57.1541 186.276 57.1541C187.592 57.1541 188.049 55.8207 188.981 56.7522C189.912 57.6655 189.072 58.1404 189.072 59.4373C189.072 60.7342 189.328 60.7342 189.328 62.0493C189.328 63.3462 189.401 63.3462 189.401 64.6613C189.401 65.9582 188.962 65.9582 188.962 67.2733C188.962 68.5702 188.506 68.5702 188.506 69.8853C188.506 71.2005 188.579 71.2187 188.798 72.5156C189.017 73.7394 189.584 73.9038 188.652 74.8354ZM225.194 184.43C224.281 185.362 224.153 184.686 222.855 184.686C221.558 184.686 221.558 184.302 220.243 184.302C218.945 184.302 218.945 184.631 217.63 184.631C216.333 184.631 216.333 184.85 215.017 184.85C213.72 184.85 213.72 184.412 212.404 184.412C211.089 184.412 211.089 184.576 209.792 184.576C208.476 184.576 207.745 185.964 206.832 185.051C205.9 184.138 207.654 183.407 207.654 182.092C207.654 180.795 207.435 180.795 207.435 179.48C207.435 178.183 206.996 178.183 206.996 176.868C206.996 175.571 207.124 175.571 207.124 174.256C207.124 172.959 206.795 172.959 206.795 171.644C206.795 170.329 206.704 170.329 206.704 169.032C206.704 167.735 206.064 167.151 206.978 166.219C207.891 165.288 208.476 166.749 209.773 166.749C211.07 166.749 211.07 165.945 212.386 165.945C213.683 165.945 213.683 166.676 214.999 166.676C216.296 166.676 216.296 166.731 217.612 166.731C218.909 166.731 218.909 166.804 220.224 166.804C221.54 166.804 221.54 166.749 222.837 166.749C224.153 166.749 224.171 165.854 225.103 166.767C226.035 167.68 225.158 167.717 225.158 169.014C225.158 170.311 225.486 170.311 225.486 171.626C225.486 172.923 225.486 172.923 225.486 174.238C225.486 175.535 225.87 175.535 225.87 176.85C225.87 178.147 225.322 178.147 225.322 179.462C225.322 180.777 224.957 180.832 225.176 182.129C225.377 183.371 226.126 183.499 225.194 184.43ZM261.737 74.8354C260.823 75.7669 260.695 75.0911 259.398 75.0911C258.101 75.0911 258.101 74.7075 256.785 74.7075C255.488 74.7075 255.488 75.0363 254.172 75.0363C252.875 75.0363 252.875 75.2555 251.56 75.2555C250.262 75.2555 250.262 74.8171 248.947 74.8171C247.631 74.8171 247.631 74.9815 246.334 74.9815C245.037 74.9815 245 74.5248 244.068 75.4564C243.136 76.3697 243.246 76.4062 243.246 77.7031C243.246 79 243.465 79 243.465 80.3151C243.465 81.612 243.904 81.612 243.904 82.9271C243.904 84.224 243.776 84.224 243.776 85.5391C243.776 86.836 244.105 86.836 244.105 88.1511C244.105 89.4662 244.196 89.4663 244.196 90.7631C244.196 92.06 242.99 92.2609 243.922 93.1925C244.836 94.124 245.037 93.7222 246.334 93.7222C247.631 93.7222 247.631 92.9185 248.947 92.9185C250.244 92.9185 250.244 93.6491 251.56 93.6491C252.857 93.6491 252.857 93.7039 254.172 93.7039C255.47 93.7039 255.47 93.777 256.785 93.777C258.101 93.777 258.101 93.7222 259.398 93.7222C260.713 93.7222 260.732 92.8272 261.664 93.7404C262.577 94.6537 261.718 94.6903 261.718 95.9871C261.718 97.284 262.047 97.284 262.047 98.5992C262.047 99.896 262.047 99.896 262.047 101.211C262.047 102.508 262.431 102.508 262.431 103.823C262.431 105.12 261.883 105.12 261.883 106.435C261.883 107.732 261.718 107.732 261.718 109.047C261.718 110.344 261.682 110.344 261.682 111.659C261.682 112.956 262.376 112.956 262.376 114.271C262.376 115.568 261.901 115.568 261.901 116.883C261.901 118.18 262.413 118.18 262.413 119.495C262.413 120.792 261.992 120.792 261.992 122.107C261.992 123.404 261.718 123.404 261.718 124.719C261.718 126.016 262.212 126.016 262.212 127.331C262.212 128.646 261.828 128.646 261.828 129.943C261.828 131.24 261.791 131.24 261.791 132.555C261.791 133.852 261.572 133.852 261.572 135.167C261.572 136.482 261.938 136.482 261.938 137.779C261.938 139.076 262.431 139.076 262.431 140.391C262.431 141.706 261.536 141.706 261.536 143.003C261.536 144.318 261.773 144.318 261.773 145.615C261.773 146.912 262.577 146.967 261.645 147.899C260.732 148.83 260.695 148.574 259.38 148.574C258.082 148.574 258.082 148.392 256.767 148.392C255.47 148.392 255.47 147.917 254.154 147.917C252.857 147.917 252.857 148.246 251.541 148.246C250.244 148.246 250.244 148.173 248.928 148.173C247.631 148.173 247.631 148.3 246.316 148.3C245.018 148.3 245.018 148.099 243.703 148.099C242.406 148.099 242.406 148.045 241.09 148.045C239.793 148.045 239.793 147.935 238.477 147.935C237.18 147.935 237.18 148.136 235.865 148.136C234.567 148.136 234.567 147.899 233.252 147.899C231.955 147.899 231.955 148.538 230.639 148.538C229.342 148.538 229.342 148.246 228.026 148.246C226.711 148.246 226.711 147.935 225.413 147.935C224.116 147.935 224.116 148.501 222.801 148.501C221.503 148.501 221.503 148.264 220.188 148.264C218.872 148.264 218.872 148.611 217.575 148.611C216.278 148.611 216.278 148.629 214.962 148.629C213.647 148.629 213.647 148.081 212.349 148.081C211.034 148.081 211.034 147.953 209.737 147.953C208.421 147.953 207.763 149.451 206.832 148.52C205.918 147.606 206.795 146.93 206.795 145.634C206.795 144.337 207.544 144.337 207.544 143.04C207.544 141.743 206.996 141.743 206.996 140.446C206.996 139.149 207.106 139.149 207.106 137.852C207.106 136.555 207.471 136.555 207.471 135.24C207.471 133.943 207.215 133.943 207.215 132.628C207.215 131.331 206.795 131.331 206.795 130.016C206.795 128.719 207.124 128.719 207.124 127.404C207.124 126.107 206.667 126.107 206.667 124.811C206.667 123.514 207.142 123.514 207.142 122.217C207.142 120.92 206.832 120.92 206.832 119.605C206.832 118.308 207.325 118.308 207.325 116.993C207.325 115.696 207.179 115.696 207.179 114.381C207.179 113.084 207.16 113.084 207.16 111.769C207.16 110.472 207.033 110.472 207.033 109.157C207.033 107.86 207.599 107.86 207.599 106.545C207.599 105.248 206.74 105.248 206.74 103.933C206.74 102.636 207.599 102.636 207.599 101.321C207.599 100.024 207.106 100.024 207.106 98.7087C207.106 97.4119 207.197 97.4119 207.197 96.0967C207.197 94.7816 206.74 94.7816 206.74 93.4847C206.74 92.1879 207.471 92.1879 207.471 90.8727C207.471 89.5576 207.526 89.5576 207.526 88.2607C207.526 86.9638 206.905 86.9638 206.905 85.6487C206.905 84.3336 206.704 84.3336 206.704 83.0367C206.704 81.7398 207.361 81.7398 207.361 80.4247C207.361 79.1278 207.489 79.1278 207.489 77.8127C207.489 76.4975 207.197 76.4975 207.197 75.2007C207.197 73.9038 207.508 73.9038 207.508 72.5887C207.508 71.2735 207.453 71.2735 207.453 69.9767C207.453 68.6615 206.886 68.6615 206.886 67.3646C206.886 66.0495 207.581 66.0495 207.581 64.7526C207.581 63.4375 207.033 63.4375 207.033 62.1406C207.033 60.8255 206.832 60.8255 206.832 59.5104C206.832 58.1952 206.393 58.0126 207.325 57.081C208.238 56.1495 208.439 57.2819 209.737 57.2819C211.034 57.2819 211.034 56.8983 212.349 56.8983C213.647 56.8983 213.647 56.8983 214.962 56.8983C216.26 56.8983 216.26 57.0627 217.575 57.0627C218.872 57.0627 218.872 57.4098 220.188 57.4098C221.485 57.4098 221.485 57.0445 222.801 57.0445C224.098 57.0445 224.098 57.3915 225.413 57.3915C226.711 57.3915 226.711 57.1358 228.026 57.1358C229.323 57.1358 229.323 57.2089 230.639 57.2089C231.936 57.2089 231.936 56.5696 233.252 56.5696C234.549 56.5696 234.549 57.2454 235.865 57.2454C237.162 57.2454 237.162 56.46 238.477 56.46C239.775 56.46 239.775 56.3869 241.09 56.3869C242.406 56.3869 242.406 56.4052 243.703 56.4052C245 56.4052 245 57.1541 246.316 57.1541C247.613 57.1541 247.613 57.0079 248.928 57.0079C250.244 57.0079 250.244 57.0627 251.541 57.0627C252.839 57.0627 252.839 56.6609 254.154 56.6609C255.47 56.6609 255.47 56.533 256.767 56.533C258.082 56.533 258.082 56.9531 259.38 56.9531C260.677 56.9531 260.75 56.2956 261.682 57.2089C262.614 58.1222 261.865 58.1952 261.865 59.4921C261.865 60.789 261.919 60.789 261.919 62.1041C261.919 63.401 261.81 63.401 261.81 64.7161C261.81 66.013 261.517 66.013 261.517 67.3281C261.517 68.625 262.321 68.625 262.321 69.9401C262.321 71.2553 262.065 71.2187 262.285 72.5156C262.486 73.6846 262.668 73.9038 261.737 74.8354Z" fill="#3081F9"/>
</svg>
